<svg version="1.2" baseProfile="tiny" xmlns="http://www.w3.org/2000/svg" width="32" height="32" viewBox="0 0 24 24">
<path d="M 12 2 C 12 2 7 4 7 8 L 7 14 L 4 17 L 4 19 L 20 19 L 20 17 L 17 14 L 17 8 C 17 4 12 2 12 2 z M 12 7 C 13.105 7 14 7.895 14 9 C 14 10.105 13.105 11 12 11 C 10.895 11 10 10.105 10 9 C 10 7.895 10.895 7 12 7 z M 9 21 C 9 23 12 24 12 24 C 12 24 15 23 15 21 L 13.259766 21 C 12.689766 21.731 12 22.132812 12 22.132812 C 12 22.132812 11.310234 21.731 10.740234 21 L 9 21 z"/>
</svg>